<mxfile host="65bd71144e">
    <diagram id="Loel3Ew34DQCVep0e5j6" name="PÃ¡gina-1">
        <mxGraphModel dx="902" dy="411" grid="1" gridSize="10" guides="1" tooltips="1" connect="1" arrows="1" fold="1" page="1" pageScale="1" pageWidth="827" pageHeight="1169" math="0" shadow="0">
            <root>
                <mxCell id="0"/>
                <mxCell id="1" parent="0"/>
                <mxCell id="4" value="" style="edgeStyle=none;html=1;fontSize=14;fontColor=#000000;" edge="1" parent="1" source="2" target="3">
                    <mxGeometry relative="1" as="geometry"/>
                </mxCell>
                <mxCell id="2" value="&lt;font color=&quot;#000000&quot; style=&quot;font-size: 14px;&quot;&gt;&lt;b&gt;INICIO&lt;/b&gt;&lt;/font&gt;" style="ellipse;whiteSpace=wrap;html=1;fillColor=#00CC00;" vertex="1" parent="1">
                    <mxGeometry x="280" width="120" height="80" as="geometry"/>
                </mxCell>
                <mxCell id="6" value="" style="edgeStyle=none;html=1;fontSize=14;fontColor=#000000;" edge="1" parent="1" source="3" target="5">
                    <mxGeometry relative="1" as="geometry"/>
                </mxCell>
                <mxCell id="3" value="&lt;b&gt;n&lt;/b&gt;" style="shape=parallelogram;perimeter=parallelogramPerimeter;whiteSpace=wrap;html=1;fixedSize=1;fontSize=14;fontColor=#000000;fillColor=#FF8000;" vertex="1" parent="1">
                    <mxGeometry x="280" y="120" width="120" height="60" as="geometry"/>
                </mxCell>
                <mxCell id="8" value="" style="edgeStyle=none;html=1;fontSize=18;fontColor=#000000;" edge="1" parent="1" source="5" target="7">
                    <mxGeometry relative="1" as="geometry"/>
                </mxCell>
                <mxCell id="5" value="&lt;b&gt;&lt;font style=&quot;font-size: 18px;&quot;&gt;Suma = 0&lt;br&gt;i = 1&lt;/font&gt;&lt;/b&gt;" style="whiteSpace=wrap;html=1;aspect=fixed;fontSize=14;fontColor=#000000;fillColor=#B266FF;" vertex="1" parent="1">
                    <mxGeometry x="295" y="220" width="90" height="90" as="geometry"/>
                </mxCell>
                <mxCell id="10" value="" style="edgeStyle=none;html=1;fontSize=18;fontColor=#000000;entryX=0.5;entryY=0;entryDx=0;entryDy=0;" edge="1" parent="1" source="7" target="11">
                    <mxGeometry relative="1" as="geometry">
                        <mxPoint x="338.46323529411757" y="500" as="targetPoint"/>
                    </mxGeometry>
                </mxCell>
                <mxCell id="14" style="edgeStyle=none;html=1;entryX=0.5;entryY=0;entryDx=0;entryDy=0;fontSize=18;fontColor=#000000;" edge="1" parent="1" source="7" target="13">
                    <mxGeometry relative="1" as="geometry">
                        <Array as="points">
                            <mxPoint x="540" y="400"/>
                        </Array>
                    </mxGeometry>
                </mxCell>
                <mxCell id="7" value="&lt;b&gt;i &amp;lt;= n&lt;/b&gt;" style="rhombus;whiteSpace=wrap;html=1;fontSize=18;fontColor=#000000;fillColor=#FFFF33;" vertex="1" parent="1">
                    <mxGeometry x="285" y="350" width="110" height="110" as="geometry"/>
                </mxCell>
                <mxCell id="12" style="edgeStyle=none;html=1;entryX=0.5;entryY=0;entryDx=0;entryDy=0;fontSize=18;fontColor=#000000;" edge="1" parent="1" source="11" target="7">
                    <mxGeometry relative="1" as="geometry">
                        <Array as="points">
                            <mxPoint x="340" y="680"/>
                            <mxPoint x="210" y="680"/>
                            <mxPoint x="210" y="350"/>
                        </Array>
                    </mxGeometry>
                </mxCell>
                <mxCell id="11" value="&lt;b&gt;suma = suma + i&lt;br&gt;&lt;br&gt;i = i + 1&lt;/b&gt;" style="rounded=0;whiteSpace=wrap;html=1;fontSize=18;fontColor=#000000;fillColor=#0066CC;" vertex="1" parent="1">
                    <mxGeometry x="255" y="510" width="170" height="80" as="geometry"/>
                </mxCell>
                <mxCell id="16" value="" style="edgeStyle=none;html=1;fontSize=18;fontColor=#000000;" edge="1" parent="1" source="13" target="15">
                    <mxGeometry relative="1" as="geometry"/>
                </mxCell>
                <mxCell id="13" value="&lt;b&gt;Suma&lt;/b&gt;" style="shape=document;whiteSpace=wrap;html=1;boundedLbl=1;fontSize=18;fontColor=#000000;fillColor=#FF8000;" vertex="1" parent="1">
                    <mxGeometry x="480" y="440" width="120" height="80" as="geometry"/>
                </mxCell>
                <mxCell id="15" value="&lt;b&gt;FIN&lt;/b&gt;" style="ellipse;whiteSpace=wrap;html=1;fontSize=18;fontColor=#000000;fillColor=#FF3333;" vertex="1" parent="1">
                    <mxGeometry x="480" y="560" width="120" height="80" as="geometry"/>
                </mxCell>
                <mxCell id="17" value="&lt;b&gt;&lt;font color=&quot;#00cc00&quot;&gt;V&lt;/font&gt;&lt;/b&gt;" style="text;html=1;align=center;verticalAlign=middle;resizable=0;points=[];autosize=1;strokeColor=none;fillColor=none;fontSize=18;fontColor=#000000;" vertex="1" parent="1">
                    <mxGeometry x="350" y="450" width="40" height="40" as="geometry"/>
                </mxCell>
                <mxCell id="18" value="&lt;b&gt;&lt;font color=&quot;#ff3333&quot;&gt;F&lt;/font&gt;&lt;/b&gt;" style="text;html=1;align=center;verticalAlign=middle;resizable=0;points=[];autosize=1;strokeColor=none;fillColor=none;fontSize=18;fontColor=#00CC00;" vertex="1" parent="1">
                    <mxGeometry x="370" y="350" width="30" height="40" as="geometry"/>
                </mxCell>
            </root>
        </mxGraphModel>
    </diagram>
</mxfile>